<svg t="1653618414331" class="icon" viewBox="0 0 1024 1024" version="1.1" xmlns="http://www.w3.org/2000/svg" p-id="1683" width="200" height="200"><path d="M682.672 362.672a85.424 85.424 0 0 1-85.344-85.344v-42.656a128.144 128.144 0 0 1 128-128H768A85.424 85.424 0 0 1 853.328 192v42.672a128.144 128.144 0 0 1-128 128zM298.672 362.672a128.144 128.144 0 0 1-128-128V192A85.424 85.424 0 0 1 256 106.672h42.672a128.144 128.144 0 0 1 128 128v42.656a85.424 85.424 0 0 1-85.344 85.344z" fill="#F1B695" p-id="1684"></path><path d="M512 533.328m-384 0a384 384 0 1 0 768 0 384 384 0 1 0-768 0Z" fill="#F8D5B9" p-id="1685"></path><path d="M512 917.328A383.616 383.616 0 0 1 157.44 680.96 215.728 215.728 0 0 1 341.328 576a208.864 208.864 0 0 1 123.728 40.096 80.848 80.848 0 0 0 93.888 0A208.768 208.768 0 0 1 682.672 576a215.728 215.728 0 0 1 183.888 104.96A383.616 383.616 0 0 1 512 917.328z" fill="#F5F5F5" p-id="1686"></path><path d="M512 576m-42.672 0a42.672 42.672 0 1 0 85.344 0 42.672 42.672 0 1 0-85.344 0Z" fill="#807A6E" p-id="1687"></path><path d="M384 405.328m-42.672 0a42.672 42.672 0 1 0 85.344 0 42.672 42.672 0 1 0-85.344 0Z" fill="#807A6E" p-id="1688"></path><path d="M640 405.328m-42.672 0a42.672 42.672 0 1 0 85.344 0 42.672 42.672 0 1 0-85.344 0Z" fill="#807A6E" p-id="1689"></path><path d="M661.328 384m-21.328 0a21.328 21.328 0 1 0 42.656 0 21.328 21.328 0 1 0-42.656 0Z" fill="#F5F5F5" p-id="1690"></path><path d="M405.328 384m-21.328 0a21.328 21.328 0 1 0 42.656 0 21.328 21.328 0 1 0-42.656 0Z" fill="#F5F5F5" p-id="1691"></path><path d="M330.672 405.328A53.328 53.328 0 1 0 384 352a53.376 53.376 0 0 0-53.328 53.328z m85.328 0a32 32 0 1 1-32-32 32.032 32.032 0 0 1 32 32zM693.328 405.328A53.328 53.328 0 1 0 640 458.672a53.376 53.376 0 0 0 53.328-53.344z m-53.328 32a32 32 0 1 1 32-32 32.032 32.032 0 0 1-32 32z" fill="#231F20" p-id="1692"></path><path d="M839.248 312.944A140.288 140.288 0 0 0 864 234.672V192a96.112 96.112 0 0 0-96-96h-42.672a138.592 138.592 0 0 0-111.008 56.592 382.8 382.8 0 0 0-204.64 0A138.592 138.592 0 0 0 298.672 96H256a96.112 96.112 0 0 0-96 96 10.672 10.672 0 1 0 21.328 0A74.752 74.752 0 0 1 256 117.328h42.672a117.008 117.008 0 0 1 88.72 41.824 395.712 395.712 0 0 0-189.056 135.6 118.48 118.48 0 0 1-17.008-60.08 10.672 10.672 0 1 0-21.328 0 140.288 140.288 0 0 0 24.752 78.272 394.56 394.56 0 0 0 195.68 592.592 10.672 10.672 0 0 0 7.12-20.112 372.752 372.752 0 0 1-217.248-204.384 201.984 201.984 0 0 1 171.04-94.368 198.24 198.24 0 0 1 117.472 38.08 91.84 91.84 0 0 0 106.416-0.032 196.304 196.304 0 0 1 76.912-33.968 10.672 10.672 0 0 0-4.288-20.928 218.16 218.16 0 0 0-83.168 36.48A51.968 51.968 0 0 0 565.328 576a53.328 53.328 0 0 0-106.656 0 51.952 51.952 0 0 0 10.56 30.192 219.312 219.312 0 0 0-127.904-40.864 226 226 0 0 0-180.64 92.224 373.168 373.168 0 1 1 702.832 0.304 225.984 225.984 0 0 0-180.848-92.528 10.672 10.672 0 1 0 0 21.344 202.032 202.032 0 0 1 171.632 95.248 373.6 373.6 0 0 1-425.28 215.504 10.656 10.656 0 1 0-4.704 20.784 394.56 394.56 0 0 0 414.928-605.28zM512 544a32 32 0 1 1-32 32 32.032 32.032 0 0 1 32-32z m124.608-384.848a117.008 117.008 0 0 1 88.72-41.824H768A74.752 74.752 0 0 1 842.672 192v42.672a118.48 118.48 0 0 1-17.024 60.08 395.712 395.712 0 0 0-189.04-135.6z" fill="#231F20" p-id="1693"></path></svg>